<svg width="69" height="70" viewBox="0 0 69 70" fill="none" xmlns="http://www.w3.org/2000/svg">
<path fill-rule="evenodd" clip-rule="evenodd" d="M19.1486 44.8829C17.6691 43.7692 16.9293 43.2124 17.1035 42.5608C17.2777 41.9092 18.3915 41.7717 20.619 41.4968C25.4342 40.9025 29.9501 38.2209 32.7215 33.7858C35.4928 29.3508 35.9233 24.1165 34.3467 19.5281C33.6174 17.4055 33.2527 16.3442 33.762 15.902C34.2712 15.4598 35.096 15.8806 36.7455 16.7221C37.1766 16.9421 37.6018 17.1825 38.0198 17.4437C45.8259 22.3215 48.1997 32.6038 43.322 40.4098C38.4442 48.2159 28.1619 50.5898 20.3559 45.712C19.9377 45.4507 19.5352 45.174 19.1486 44.8829Z" fill="black"/>
</svg>
