<svg width="500" height="500" viewBox="0 0 500 500" fill="none" xmlns="http://www.w3.org/2000/svg">
<path d="M6.3021 4.31249L5.89585 3.90624C5.4896 3.49999 4.83335 3.51041 4.43752 3.90624L4.4271 3.91666C4.02085 4.32291 4.02085 4.97916 4.4271 5.37499L4.83335 5.78124C5.2396 6.18749 5.88544 6.18749 6.29169 5.78124L6.3021 5.77082C6.70835 5.37499 6.70835 4.70832 6.3021 4.31249ZM3.13544 10.9375H2.07294C1.50002 10.9375 1.04169 11.3958 1.04169 11.9687V11.9792C1.04169 12.5521 1.50002 13.0104 2.07294 13.0104H3.12502C3.70835 13.0208 4.16669 12.5625 4.16669 11.9896V11.9792C4.16669 11.3958 3.70835 10.9375 3.13544 10.9375ZM12.5104 0.572906H12.5C11.9167 0.572906 11.4584 1.03124 11.4584 1.60416V2.60416C11.4584 3.17707 11.9167 3.63541 12.4896 3.63541H12.5C13.0834 3.64582 13.5417 3.18749 13.5417 2.61457V1.60416C13.5417 1.03124 13.0834 0.572906 12.5104 0.572906ZM20.5729 3.91666C20.1667 3.51041 19.5104 3.51041 19.1042 3.90624L18.6979 4.31249C18.2917 4.71874 18.2917 5.37499 18.6979 5.77082L18.7084 5.78124C19.1146 6.18749 19.7709 6.18749 20.1667 5.78124L20.5729 5.37499C20.9792 4.96874 20.9792 4.32291 20.5729 3.91666ZM18.6875 19.6458L19.0938 20.0521C19.5 20.4583 20.1563 20.4583 20.5625 20.0521C20.9688 19.6458 20.9688 18.9896 20.5625 18.5833L20.1563 18.1771C19.75 17.7708 19.0938 17.7812 18.6979 18.1771C18.2813 18.5937 18.2813 19.2396 18.6875 19.6458ZM20.8334 11.9687V11.9792C20.8334 12.5521 21.2917 13.0104 21.8646 13.0104H22.9167C23.4896 13.0104 23.9479 12.5521 23.9479 11.9792V11.9687C23.9479 11.3958 23.4896 10.9375 22.9167 10.9375H21.8646C21.2917 10.9375 20.8334 11.3958 20.8334 11.9687ZM12.5 5.72916C9.0521 5.72916 6.25002 8.53124 6.25002 11.9792C6.25002 15.4271 9.0521 18.2292 12.5 18.2292C15.9479 18.2292 18.75 15.4271 18.75 11.9792C18.75 8.53124 15.9479 5.72916 12.5 5.72916ZM12.4896 23.3854H12.5C13.0729 23.3854 13.5313 22.9271 13.5313 22.3542V21.3542C13.5313 20.7812 13.0729 20.3229 12.5 20.3229H12.4896C11.9167 20.3229 11.4584 20.7812 11.4584 21.3542V22.3542C11.4584 22.9271 11.9167 23.3854 12.4896 23.3854ZM4.4271 20.0417C4.83335 20.4479 5.4896 20.4479 5.89585 20.0417L6.3021 19.6354C6.70835 19.2292 6.69794 18.5729 6.3021 18.1771L6.29169 18.1667C5.88544 17.7604 5.22919 17.7604 4.82294 18.1667L4.41669 18.5729C4.02085 18.9896 4.02085 19.6354 4.4271 20.0417Z" fill="black"/>
</svg>
