<?xml version="1.0" encoding="utf-8"?>
<!-- Svg Vector Icons : http://www.onlinewebfonts.com/icon -->
<!DOCTYPE svg PUBLIC "-//W3C//DTD SVG 1.1//EN" "http://www.w3.org/Graphics/SVG/1.1/DTD/svg11.dtd">
<svg version="1.1" xmlns="http://www.w3.org/2000/svg" xmlns:xlink="http://www.w3.org/1999/xlink" x="0px" y="0px" viewBox="0 0 1000 1000" enable-background="new 0 0 1000 1000" xml:space="preserve">
<metadata> Svg Vector Icons : http://www.onlinewebfonts.com/icon </metadata>
<g><path d="M948,542h-84c-23.2,0-42-18.8-42-42c0-23.2,18.8-42,42-42h84c23.2,0,42,18.8,42,42C990,523.2,971.2,542,948,542z"/><path d="M809.7,249.7c-7.6,7.6-18.1,12.3-29.7,12.3c-23.2,0-42-18.8-42-42c0-11.6,4.7-22.1,12.3-29.7l56-56c7.6-7.6,18.1-12.3,29.7-12.3c23.2,0,42,18.8,42,42c0,11.6-4.7,22.1-12.3,29.7L809.7,249.7z"/><path d="M500,794c-162.1,0-294-131.9-294-294c0-162.1,131.9-294,294-294c162.1,0,294,131.9,294,294S662.1,794,500,794z"/><path d="M500,178c-23.2,0-42-18.8-42-42V52c0-23.2,18.8-42,42-42c23.2,0,42,18.8,42,42v84C542,159.2,523.2,178,500,178z"/><path d="M220,262c-11.6,0-22.1-4.7-29.7-12.3l-56-56c-7.6-7.6-12.3-18.1-12.3-29.7c0-23.2,18.8-42,42-42c11.6,0,22.1,4.7,29.7,12.3l56,56c7.6,7.6,12.3,18.1,12.3,29.7C262,243.2,243.2,262,220,262z"/><path d="M178,500c0,23.2-18.8,42-42,42H52c-23.2,0-42-18.8-42-42c0-23.2,18.8-42,42-42h84C159.2,458,178,476.8,178,500z"/><path d="M190.3,750.3c7.6-7.6,18.1-12.3,29.7-12.3c23.2,0,42,18.8,42,42c0,11.6-4.7,22.1-12.3,29.7l-56,56c-7.6,7.6-18.1,12.3-29.7,12.3c-23.2,0-42-18.8-42-42c0-11.6,4.7-22.1,12.3-29.7L190.3,750.3z"/><path d="M500,822c23.2,0,42,18.8,42,42v84c0,23.2-18.8,42-42,42c-23.2,0-42-18.8-42-42v-84C458,840.8,476.8,822,500,822z"/><path d="M780,738c11.6,0,22.1,4.7,29.7,12.3l56,56c7.6,7.6,12.3,18.1,12.3,29.7c0,23.2-18.8,42-42,42c-11.6,0-22.1-4.7-29.7-12.3l-56-56c-7.6-7.6-12.3-18.1-12.3-29.7C738,756.8,756.8,738,780,738z"/></g>
</svg>